<svg width="0" height="0" class="hidden">
  <symbol fill="none" xmlns="http://www.w3.org/2000/svg" viewBox="0 0 34 34" id="searchIcon">
    <path d="M23.1429 14.1429C23.1429 19.1049 19.1049 23.1429 14.1429 23.1429C9.1808 23.1429 5.14286 19.1049 5.14286 14.1429C5.14286 9.1808 9.1808 5.14286 14.1429 5.14286C19.1049 5.14286 23.1429 9.1808 23.1429 14.1429ZM33.4286 30.8571C33.4286 30.1741 33.1473 29.5112 32.6853 29.0491L25.7946 22.1585C27.4219 19.808 28.2857 16.9955 28.2857 14.1429C28.2857 6.32812 21.9576 0 14.1429 0C6.32812 0 0 6.32812 0 14.1429C0 21.9576 6.32812 28.2857 14.1429 28.2857C16.9955 28.2857 19.808 27.4219 22.1585 25.7946L29.0491 32.6652C29.5112 33.1473 30.1741 33.4286 30.8571 33.4286C32.2634 33.4286 33.4286 32.2634 33.4286 30.8571Z" fill="white"></path>
  </symbol>
  <symbol fill="none" xmlns="http://www.w3.org/2000/svg" viewBox="0 0 31 31" id="percents">
    <path d="M25.7143 23.1429C25.7143 24.5491 24.5491 25.7143 23.1429 25.7143C21.7366 25.7143 20.5714 24.5491 20.5714 23.1429C20.5714 21.7366 21.7366 20.5714 23.1429 20.5714C24.5491 20.5714 25.7143 21.7366 25.7143 23.1429ZM10.2857 7.71429C10.2857 9.12054 9.12054 10.2857 7.71429 10.2857C6.30804 10.2857 5.14286 9.12054 5.14286 7.71429C5.14286 6.30804 6.30804 5.14286 7.71429 5.14286C9.12054 5.14286 10.2857 6.30804 10.2857 7.71429ZM30.8571 23.1429C30.8571 18.8839 27.4018 15.4286 23.1429 15.4286C18.8839 15.4286 15.4286 18.8839 15.4286 23.1429C15.4286 27.4018 18.8839 30.8571 23.1429 30.8571C27.4018 30.8571 30.8571 27.4018 30.8571 23.1429ZM28.9286 1.28571C28.9286 0.582589 28.346 0 27.6429 0H24.4286C24.0268 0 23.6451 0.200893 23.404 0.522323L2.18973 28.808C2.02902 29.029 1.92857 29.2902 1.92857 29.5714C1.92857 30.2746 2.51116 30.8571 3.21429 30.8571H6.42857C6.83036 30.8571 7.21205 30.6563 7.45313 30.3348L28.6674 2.04911C28.8281 1.82813 28.9286 1.56696 28.9286 1.28571ZM15.4286 7.71429C15.4286 3.45536 11.9732 0 7.71429 0C3.45536 0 0 3.45536 0 7.71429C0 11.9732 3.45536 15.4286 7.71429 15.4286C11.9732 15.4286 15.4286 11.9732 15.4286 7.71429Z" fill="white"></path>
  </symbol>
  <symbol fill="none" xmlns="http://www.w3.org/2000/svg" viewBox="0 0 39 42" id="file">
    <path d="M15.1293 22.8876V21.6019C15.1293 21.2403 15.4105 20.9591 15.7721 20.9591H29.915C30.2766 20.9591 30.5579 21.2403 30.5579 21.6019V22.8876C30.5579 23.2492 30.2766 23.5305 29.915 23.5305H15.7721C15.4105 23.5305 15.1293 23.2492 15.1293 22.8876Z" fill="white"></path>
    <path d="M15.7721 26.1019H29.915C30.2766 26.1019 30.5579 26.3832 30.5579 26.7448V28.0305C30.5579 28.3921 30.2766 28.6733 29.915 28.6733H15.7721C15.4105 28.6733 15.1293 28.3921 15.1293 28.0305V26.7448C15.1293 26.3832 15.4105 26.1019 15.7721 26.1019Z" fill="white"></path>
    <path d="M15.7721 31.2448H29.915C30.2766 31.2448 30.5579 31.526 30.5579 31.8876V33.1733C30.5579 33.535 30.2766 33.8162 29.915 33.8162H15.7721C15.4105 33.8162 15.1293 33.535 15.1293 33.1733V31.8876C15.1293 31.526 15.4105 31.2448 15.7721 31.2448Z" fill="white"></path>
    <path fill-rule="evenodd" clip-rule="evenodd" d="M7.415 14.83C3.31981 14.83 0 11.5102 0 7.415C0 3.31981 3.31981 0 7.415 0C10.859 0 13.7546 2.34797 14.5884 5.53049H27.3436C28.4083 5.53049 29.8949 6.15326 30.6382 6.89656L36.9061 13.1644C37.6494 13.9077 38.2721 15.3943 38.2721 16.4591V39.6019C38.2721 40.6667 37.4083 41.5305 36.3436 41.5305H9.34357C8.27884 41.5305 7.415 40.6667 7.415 39.6019L7.415 14.83ZM9.98643 14.372C12.6089 13.4023 14.5331 10.9922 14.7986 8.10192H25.415V16.4591C25.415 17.5238 26.2788 18.3876 27.3436 18.3876H35.7007V38.9591H9.98643V14.372ZM28.8101 8.7046C28.6695 8.56397 28.3279 8.38317 27.9864 8.26263V15.8162H35.54C35.4195 15.4747 35.2387 15.1332 35.098 14.9925L28.8101 8.7046ZM8.415 8.41504H12.415V6.41504H8.415V2.41504H6.415V6.41504H2.415V8.41504H6.415V12.415H8.415V8.41504Z" fill="white"></path>
  </symbol>
  <symbol fill="none" xmlns="http://www.w3.org/2000/svg" viewBox="0 0 36 29" id="envelop">
    <path d="M33.4286 25.0714C33.4286 25.4129 33.1272 25.7143 32.7857 25.7143H3.21429C2.87277 25.7143 2.57143 25.4129 2.57143 25.0714V9.64286C2.9933 10.125 3.45536 10.567 3.95759 10.9688C6.83036 13.1786 9.72322 15.4286 12.5156 17.7589C14.0223 19.0246 15.8906 20.5714 17.9799 20.5714H18H18.0201C20.1094 20.5714 21.9777 19.0246 23.4844 17.7589C26.2768 15.4286 29.1696 13.1786 32.0424 10.9688C32.5446 10.567 33.0067 10.125 33.4286 9.64286V25.0714ZM33.4286 3.95759C33.4286 5.66518 31.7813 7.89509 30.4754 8.91964C27.7835 11.029 25.0915 13.1585 22.4196 15.2879C21.3549 16.1518 19.4263 18 18.0201 18H18H17.9799C16.5737 18 14.6451 16.1518 13.5804 15.2879C10.9085 13.1585 8.21652 11.029 5.52455 8.91964C3.71652 7.4933 2.57143 5.50446 2.57143 3.21429C2.57143 2.87277 2.87277 2.57143 3.21429 2.57143H32.7857C33.5491 2.57143 33.4286 3.45536 33.4286 3.95759ZM36 3.21429C36 1.44643 34.5536 0 32.7857 0H3.21429C1.44643 0 0 1.44643 0 3.21429V25.0714C0 26.8393 1.44643 28.2857 3.21429 28.2857H32.7857C34.5536 28.2857 36 26.8393 36 25.0714V3.21429Z" fill="white"></path>
  </symbol>
  <symbol fill="none" xmlns="http://www.w3.org/2000/svg" viewBox="0 0 39 26" id="banknote">
    <path d="M15.4286 18V16.0714H18V10.2857H17.9598C17.6384 10.7879 17.3371 11.0089 16.8549 11.4308L15.308 9.82366L18.2812 7.07143H20.5714V16.0714H23.1429V18H15.4286ZM25.7143 12.8571C25.7143 9.20089 23.5045 4.5 19.2857 4.5C15.067 4.5 12.8571 9.20089 12.8571 12.8571C12.8571 16.5134 15.067 21.2143 19.2857 21.2143C23.5045 21.2143 25.7143 16.5134 25.7143 12.8571ZM36 18C33.1674 18 30.8571 20.3103 30.8571 23.1429H7.71429C7.71429 20.3103 5.40402 18 2.57143 18V7.71429C5.40402 7.71429 7.71429 5.40402 7.71429 2.57143H30.8571C30.8571 5.40402 33.1674 7.71429 36 7.71429V18ZM38.5714 1.28571C38.5714 0.582589 37.9888 0 37.2857 0H1.28571C0.582589 0 0 0.582589 0 1.28571V24.4286C0 25.1317 0.582589 25.7143 1.28571 25.7143H37.2857C37.9888 25.7143 38.5714 25.1317 38.5714 24.4286V1.28571Z" fill="white"></path>
  </symbol>
  <symbol fill="none" xmlns="http://www.w3.org/2000/svg" viewBox="0 0 9 6" id="arrow">
    <path d="M8.91072 0.741071C8.91072 0.669643 8.875 0.589285 8.82143 0.535714L8.375 0.0892854C8.32143 0.0357141 8.24107 0 8.16964 0C8.09822 0 8.01786 0.0357141 7.96429 0.0892854L4.45536 3.59821L0.946429 0.0892854C0.892857 0.0357141 0.8125 0 0.741071 0C0.660714 0 0.589286 0.0357141 0.535714 0.0892854L0.0892857 0.535714C0.0357143 0.589285 0 0.669643 0 0.741071C0 0.8125 0.0357143 0.892858 0.0892857 0.946429L4.25 5.10714C4.30357 5.16071 4.38393 5.19643 4.45536 5.19643C4.52679 5.19643 4.60714 5.16071 4.66071 5.10714L8.82143 0.946429C8.875 0.892858 8.91072 0.8125 8.91072 0.741071Z" fill="black"></path>
  </symbol>
</svg>
